<svg width="38" height="33" viewBox="0 0 38 33" fill="none" xmlns="http://www.w3.org/2000/svg">
<path d="M18.8232 4.76465L18.8232 0.999942" stroke="#222222" stroke-width="2" stroke-linecap="round"/>
<path fill-rule="evenodd" clip-rule="evenodd" d="M37.6471 10.4119H0V16.0589H0.556021C2.09428 16.0589 2.86341 16.0589 3.41182 16.4988C3.96022 16.9388 4.12707 17.6896 4.46077 19.1912L6.83335 29.8678C7.16705 31.3695 7.33389 32.1203 7.8823 32.5602C8.43071 33.0001 9.19984 33.0001 10.7381 33.0001H26.909C28.4472 33.0001 29.2164 33.0001 29.7648 32.5602C30.3132 32.1203 30.48 31.3695 30.8137 29.8678L33.1863 19.1912C33.52 17.6896 33.6868 16.9388 34.2352 16.4988C34.7836 16.0589 35.5528 16.0589 37.091 16.0589H37.6471V10.4119ZM13.2217 19.6592C13.131 19.1144 12.6157 18.7464 12.071 18.8372C11.5262 18.928 11.1582 19.4432 11.249 19.988L12.1901 25.635C12.2809 26.1798 12.7962 26.5478 13.3409 26.457C13.8857 26.3662 14.2537 25.851 14.1629 25.3062L13.2217 19.6592ZM26.398 19.988C26.4888 19.4432 26.1208 18.928 25.576 18.8372C25.0313 18.7464 24.516 19.1144 24.4252 19.6592L23.4841 25.3062C23.3933 25.851 23.7613 26.3662 24.3061 26.457C24.8508 26.5478 25.3661 26.1798 25.4569 25.635L26.398 19.988Z" fill="#222222"/>
</svg>
