<svg width="24" height="20" viewBox="0 0 24 20" fill="none" xmlns="http://www.w3.org/2000/svg">
<path fill-rule="evenodd" clip-rule="evenodd" d="M0 6.5931C0 2.86758 3.24905 0 7.06286 0C9.0288 0 10.7586 0.926886 12 2.12689C13.2414 0.926886 14.9712 0 16.9371 0C20.7509 0 24 2.86758 24 6.5931C24 9.14483 22.9181 11.3876 21.4192 13.2855C19.9229 15.1779 17.9657 16.7848 16.0917 18.091C15.3758 18.5903 14.6517 19.0497 13.989 19.389C13.3666 19.7076 12.651 20 12 20C11.349 20 10.6334 19.7076 10.011 19.389C9.34835 19.0497 8.62423 18.5903 7.90834 18.091C6.03442 16.7848 4.07712 15.1779 2.58076 13.2855C1.08192 11.3876 0 9.14483 0 6.5931Z" fill="#C7C7C7"/>
</svg>
