<svg width="19" height="21" viewBox="0 0 19 21" fill="none" xmlns="http://www.w3.org/2000/svg">
<path d="M13.7218 6.26316V5.22222C13.7218 2.89035 11.8314 1 9.49957 1V1C7.1677 1 5.27734 2.89035 5.27734 5.22222V6.26316" stroke="#C7C7C7" stroke-width="2" stroke-linecap="round"/>
<path fill-rule="evenodd" clip-rule="evenodd" d="M0.87868 6.08913C0 6.96781 0 8.38202 0 11.2105V12.9999C0 16.7712 0 18.6568 1.17157 19.8284C2.34315 20.9999 4.22876 20.9999 8 20.9999H11C14.7712 20.9999 16.6569 20.9999 17.8284 19.8284C19 18.6568 19 16.7712 19 12.9999V11.2104C19 8.38202 19 6.96781 18.1213 6.08913C17.2426 5.21045 15.8284 5.21045 13 5.21045H6C3.17157 5.21045 1.75736 5.21045 0.87868 6.08913ZM9.49967 13.7367C10.1492 13.7367 10.6663 13.2131 10.6663 12.5788C10.6663 11.9445 10.1492 11.4209 9.49967 11.4209C8.85011 11.4209 8.33301 11.9445 8.33301 12.5788C8.33301 13.2131 8.85011 13.7367 9.49967 13.7367ZM12.6663 12.5788C12.6663 13.9743 11.7587 15.1583 10.5 15.5759V17.842H8.5V15.5761C7.24097 15.1587 6.33301 13.9745 6.33301 12.5788C6.33301 10.8347 7.75077 9.4209 9.49967 9.4209C11.2486 9.4209 12.6663 10.8347 12.6663 12.5788Z" fill="#C7C7C7"/>
</svg>
