<svg width="43" height="43" viewBox="0 0 43 43" fill="none" xmlns="http://www.w3.org/2000/svg">
<path d="M2.33301 20.3328C2.33301 11.8475 2.33301 7.60484 4.96905 4.9688C7.60509 2.33276 11.8477 2.33276 20.333 2.33276H22.6663C31.1516 2.33276 35.3943 2.33276 38.0303 4.9688C40.6663 7.60484 40.6663 11.8475 40.6663 20.3328V36.6661C40.6663 38.5517 40.6663 39.4945 40.0806 40.0803C39.4948 40.6661 38.552 40.6661 36.6663 40.6661H20.333C11.8477 40.6661 7.60509 40.6661 4.96905 38.0301C2.33301 35.394 2.33301 31.1514 2.33301 22.6661V20.3328Z" stroke="white" stroke-width="4"/>
<path d="M14.3125 19.1031L28.6875 19.1031" stroke="white" stroke-width="4" stroke-linecap="round" stroke-linejoin="round"/>
<path d="M21.5 28.6875H28.6875" stroke="white" stroke-width="4" stroke-linecap="round" stroke-linejoin="round"/>
</svg>
