<svg width="18" height="22" viewBox="0 0 18 22" fill="none" xmlns="http://www.w3.org/2000/svg">
<path fill-rule="evenodd" clip-rule="evenodd" d="M0.87868 7.94557C0 8.82425 0 10.2385 0 13.0669V13.9999C0 17.7712 0 19.6568 1.17157 20.8284C2.34315 21.9999 4.22876 21.9999 8 21.9999H10C13.7712 21.9999 15.6569 21.9999 16.8284 20.8284C18 19.6568 18 17.7712 18 13.9999V13.0669C18 10.2385 18 8.82425 17.1213 7.94557C16.2426 7.06689 14.8284 7.06689 12 7.06689H6C3.17157 7.06689 1.75736 7.06689 0.87868 7.94557ZM9 15.0223C9.56073 15.0223 10 14.5722 10 14.0357C10 13.4992 9.56073 13.0491 9 13.0491C8.43927 13.0491 8 13.4992 8 14.0357C8 14.5722 8.43927 15.0223 9 15.0223ZM12 14.0357C12 15.3361 11.1652 16.4424 10 16.8524V19.0134H8V16.8524C6.83481 16.4424 6 15.3361 6 14.0357C6 12.3862 7.34315 11.0491 9 11.0491C10.6569 11.0491 12 12.3862 12 14.0357Z" fill="#222222"/>
<path d="M13.5 8.0623V8.0623C13.8044 6.24404 13.0128 4.41864 11.4766 3.39606L11.0976 3.14377C9.07288 1.79603 6.39162 1.96426 4.54681 3.55478L3.66992 4.3108" stroke="#222222" stroke-width="2" stroke-linecap="round"/>
</svg>
