<svg width="31" height="31" viewBox="0 0 31 31" fill="none" xmlns="http://www.w3.org/2000/svg">
<path d="M2.67962 4.74143L6.71395 0.707107C7.10447 0.316583 7.73763 0.316582 8.12816 0.707106L13.4508 6.02974C13.8413 6.42026 13.8413 7.05343 13.4508 7.44395L9.94818 10.9466C9.4448 11.4499 9.32 12.219 9.63837 12.8557C11.4788 16.5366 14.4634 19.5212 18.1443 21.3616C18.781 21.68 19.5501 21.5552 20.0534 21.0518L23.5561 17.5492C23.9466 17.1587 24.5797 17.1587 24.9703 17.5492L30.2929 22.8718C30.6834 23.2624 30.6834 23.8955 30.2929 24.2861L26.2586 28.3204C24.1472 30.4317 20.8047 30.6693 18.4159 28.8777L11.7338 23.8662C9.9903 22.5585 8.44148 21.0097 7.13383 19.2662L2.12226 12.5841C0.330722 10.1953 0.568268 6.85278 2.67962 4.74143Z" fill="#222222"/>
</svg>
