<svg width="19" height="18" viewBox="0 0 19 18" fill="none" xmlns="http://www.w3.org/2000/svg">
<path fill-rule="evenodd" clip-rule="evenodd" d="M17.195 3.51499C17.863 3.99599 18.334 4.735 18.463 5.593C18.508 5.894 18.549 6.19599 18.585 6.49699C18.865 9.09999 18.853 12.102 18.463 14.694C18.247 16.129 17.077 17.229 15.632 17.354L14.121 17.485C10.9724 17.759 7.80555 17.759 4.65655 17.485L3.14635 17.354C1.70125 17.229 0.530542 16.129 0.314842 14.694C-0.0749581 12.102 -0.0874512 9.09999 0.192749 6.49699C0.228949 6.19599 0.269642 5.894 0.314842 5.593C0.443842 4.736 0.913842 3.99798 1.57974 3.51698L1.57905 3.50999L1.62624 3.48399C1.79874 3.36399 1.98385 3.26098 2.17905 3.17698L6.59505 0.723C8.33165 -0.241 10.4433 -0.241 12.1799 0.723L16.586 3.171C16.79 3.258 16.984 3.36598 17.164 3.49198L17.196 3.50999L17.195 3.51499ZM16.355 4.758L11.4514 2.03498C10.1678 1.32098 8.60715 1.32098 7.32355 2.03498L2.43185 4.75199C2.09835 5.00399 1.86375 5.38099 1.79825 5.81699C1.78655 5.89399 1.77515 5.972 1.76405 6.05L7.32504 9.13898C8.60864 9.85198 10.1693 9.85198 11.4529 9.13898L17.014 6.05C17.003 5.972 16.991 5.89399 16.98 5.81699C16.915 5.38399 16.684 5.01 16.355 4.758ZM17.094 13.625C17.333 11.646 17.367 9.64798 17.197 7.66398L12.1814 10.451C10.4448 11.415 8.33314 11.415 6.59654 10.451L1.58054 7.66398C1.41074 9.64798 1.44515 11.646 1.68355 13.625C1.71755 13.907 1.75585 14.19 1.79825 14.471C1.82215 14.631 1.86885 14.783 1.93465 14.923C2.17775 15.442 2.68264 15.808 3.27624 15.86L4.78645 15.991C7.84904 16.257 10.9289 16.257 13.992 15.991L15.502 15.86C15.973 15.819 16.389 15.579 16.662 15.222C16.825 15.008 16.938 14.752 16.98 14.471C17.022 14.19 17.06 13.907 17.094 13.625Z" fill="black"/>
</svg>
