<svg width="22" height="21" viewBox="0 0 22 21" fill="none" xmlns="http://www.w3.org/2000/svg">
<path d="M9.3418 20L16.1666 20" stroke="#C7C7C7" stroke-width="2" stroke-linecap="round"/>
<path d="M4.4124 8.54581L16.9245 2.00032" stroke="#C7C7C7" stroke-width="2" stroke-linecap="round"/>
<path d="M4.55481 19.0796C2.59167 19.0796 1.00024 17.3625 1.00024 15.2443C1.00024 13.1262 2.59167 8.54541 4.55481 8.54541C6.51794 8.54541 8.10937 13.1262 8.10937 15.2443C8.10937 17.3625 6.51794 19.0796 4.55481 19.0796Z" stroke="#C7C7C7" stroke-width="2" stroke-linecap="round"/>
<path d="M17.4454 12.5341C15.4823 12.5341 13.8909 10.817 13.8909 8.6989C13.8909 6.58075 15.4823 2 17.4454 2C19.4086 2 21 6.58075 21 8.6989C21 10.817 19.4086 12.5341 17.4454 12.5341Z" stroke="#C7C7C7" stroke-width="2" stroke-linecap="round"/>
</svg>
