<svg width="21" height="18" viewBox="0 0 21 18" fill="none" xmlns="http://www.w3.org/2000/svg">
<path fill-rule="evenodd" clip-rule="evenodd" d="M4.38048 10.7671C4.42428 10.7771 4.46848 10.7871 4.51258 10.7971C4.56078 10.9071 4.62298 11.057 4.69548 11.227C4.87258 11.647 5.11118 12.2071 5.35748 12.7971C5.85968 14.0071 6.36628 15.237 6.47818 15.597C6.61668 16.037 6.76308 16.3271 6.92298 16.5371C7.00558 16.6371 7.10118 16.7371 7.21298 16.7971C7.26928 16.8371 7.32878 16.8671 7.39088 16.8871C7.39358 16.8871 7.39628 16.8871 7.39908 16.8871C7.71908 17.0071 8.01088 16.9571 8.19348 16.8971C8.29128 16.8671 8.37038 16.8271 8.42638 16.7971C8.45498 16.7771 8.47908 16.7671 8.49838 16.7471H8.50288L11.3291 14.987L14.5937 17.487C14.6418 17.527 14.6944 17.557 14.75 17.577C15.1422 17.747 15.522 17.8071 15.8792 17.7571C16.2359 17.7071 16.519 17.5671 16.7298 17.3971C16.9362 17.2271 17.0762 17.0471 17.1633 16.9071C17.2078 16.8371 17.2412 16.777 17.2648 16.727C17.2766 16.707 17.2861 16.6771 17.2935 16.6671L17.3029 16.6471L17.3065 16.6371L17.308 16.6271H17.3086H17.3093C17.3264 16.5871 17.3396 16.5371 17.3486 16.4971L20.3288 1.46702C20.3383 1.41702 20.3431 1.37701 20.3431 1.32701C20.3431 0.887009 20.1773 0.467013 19.7875 0.207013C19.4543 -0.00298657 19.0831 -0.0129377 18.8486 0.00706226C18.5955 0.0270623 18.3618 0.0870671 18.205 0.137067C18.1234 0.157067 18.0549 0.187013 18.0056 0.207013C17.9808 0.217013 17.9605 0.227033 17.9453 0.227033L17.934 0.237043L1.22028 6.78709H1.21808C1.20738 6.79709 1.19378 6.79711 1.17748 6.80711C1.14508 6.81711 1.10178 6.83704 1.05108 6.85704C0.952282 6.90704 0.813784 6.977 0.671584 7.067C0.444384 7.227 -0.0781169 7.65704 0.00988312 8.35704C0.0800831 8.91704 0.464381 9.26711 0.698581 9.42711C0.827181 9.51711 0.949384 9.58706 1.03828 9.62706C1.07958 9.64706 1.16528 9.677 1.20248 9.697H1.21188L4.38048 10.7671ZM18.5189 1.61705H18.5166C18.5082 1.61705 18.4999 1.62706 18.4914 1.62706L1.75738 8.18699C1.74868 8.19699 1.73988 8.197 1.73098 8.197L1.72168 8.20701C1.71098 8.20701 1.69298 8.21703 1.67028 8.22703C1.65748 8.22703 1.64408 8.23705 1.63048 8.24705C1.64918 8.25705 1.66718 8.26708 1.68308 8.27708C1.69838 8.27708 1.71008 8.28709 1.71648 8.28709L4.85908 9.34703C4.91658 9.36703 4.97028 9.3871 5.01948 9.4171L15.3963 3.34703L15.406 3.33702C15.4135 3.33702 15.4235 3.32701 15.4354 3.32701C15.459 3.30701 15.4914 3.29708 15.53 3.27708C15.602 3.23708 15.7173 3.17707 15.8471 3.13707C15.9374 3.11707 16.2039 3.03706 16.492 3.12706C16.6698 3.18706 16.8539 3.30707 16.9737 3.51707C17.0331 3.61707 17.0648 3.717 17.0802 3.817C17.121 3.967 17.1145 4.11704 17.0826 4.23704C17.0138 4.51704 16.821 4.72708 16.6455 4.89708C16.4951 5.03708 14.5497 6.90706 12.6306 8.75706C11.6735 9.68706 10.7263 10.5971 10.0182 11.2871L9.55318 11.727L15.4251 16.237C15.5598 16.277 15.6394 16.2771 15.6762 16.2771C15.7201 16.2671 15.756 16.247 15.7927 16.227C15.8337 16.187 15.8696 16.147 15.8964 16.107L15.8975 16.097L18.788 1.52708C18.7451 1.53708 18.7017 1.547 18.6599 1.567C18.6126 1.577 18.5735 1.59704 18.5477 1.60704C18.5348 1.60704 18.5256 1.61705 18.5206 1.61705H18.5189ZM10.0576 14.0071L8.88608 13.107L8.60228 14.9171L10.0576 14.0071ZM7.81148 11.327L8.97638 10.207C9.68448 9.51701 10.6319 8.60699 11.5891 7.68699L12.5616 6.74705L6.04148 10.5571L6.07648 10.6471C6.25418 11.0671 6.49388 11.627 6.74138 12.227C6.92658 12.667 7.12018 13.127 7.29648 13.567L7.57948 11.7671C7.60678 11.5871 7.69158 11.437 7.81148 11.327Z" fill="black"/>
</svg>
