<svg width="20" height="21" viewBox="0 0 20 21" fill="none" xmlns="http://www.w3.org/2000/svg">
<path d="M5.71484 4.35238C5.52884 4.32238 5.33985 4.36249 5.17785 4.46249H5.16385C4.78885 4.68249 4.45085 4.96244 4.16285 5.28244C3.92285 5.56244 3.79285 5.84239 3.75885 6.11239C3.73885 6.27239 3.75285 6.43248 3.79985 6.58248L3.81785 6.59237C4.08685 7.39237 4.43985 8.1524 4.86985 8.8724C5.42485 9.8824 6.10685 10.8124 6.90085 11.6424L6.92385 11.6825L6.96184 11.7025L6.98485 11.7324L7.01285 11.7624C7.84985 12.5524 8.78484 13.2425 9.79484 13.8025C10.9498 14.4225 11.6509 14.7224 12.0719 14.8424V14.8524C12.1949 14.8924 12.3068 14.9124 12.4198 14.9124C12.7788 14.8824 13.1178 14.7324 13.3838 14.4924C13.7088 14.2024 13.9828 13.8624 14.1978 13.4924V13.4824C14.3998 13.1024 14.3308 12.7424 14.0408 12.5024C13.4578 11.9924 12.8288 11.5424 12.1599 11.1524C11.7129 10.9124 11.2579 11.0525 11.0739 11.3025L10.6808 11.8025C10.4788 12.0425 10.1129 12.0124 10.1129 12.0124H10.1019C7.37185 11.3224 6.64284 8.55245 6.64284 8.55245C6.64284 8.55245 6.60885 8.18239 6.86185 7.98239L7.35384 7.59237C7.58984 7.40237 7.75385 6.9424 7.50085 6.4924C7.11485 5.8224 6.66385 5.19239 6.15385 4.61239C6.04285 4.48239 5.88684 4.38238 5.71284 4.35238H5.71484Z" fill="black"/>
<path d="M10.3281 3.15247C10.0521 3.15247 9.82812 3.37247 9.82812 3.65247C9.82812 3.93247 10.0521 4.15247 10.3281 4.15247C11.5931 4.15247 12.6431 4.56242 13.4731 5.35242C13.9011 5.79242 14.2331 6.30243 14.4521 6.86243C14.6711 7.43243 14.7711 8.03245 14.7451 8.63245C14.7331 8.90245 14.9481 9.14247 15.2231 9.15247C15.4991 9.16247 15.7321 8.95249 15.7441 8.67249C15.7761 7.93249 15.6531 7.19244 15.3841 6.50244C15.1151 5.81244 14.7051 5.18247 14.1801 4.65247L14.1701 4.64246C13.1401 3.65246 11.8341 3.15247 10.3281 3.15247Z" fill="black"/>
<path d="M10.2949 4.79297C10.0189 4.79297 9.79492 5.02297 9.79492 5.29297C9.79492 5.57297 10.0189 5.79297 10.2949 5.79297H10.3119C11.2239 5.86297 11.8879 6.16296 12.3529 6.66296C12.8299 7.18296 13.0769 7.81292 13.0579 8.61292C13.0519 8.88292 13.2709 9.11292 13.5469 9.12292C13.8229 9.12292 14.0519 8.90293 14.0579 8.63293C14.0819 7.59293 13.7489 6.70291 13.0859 5.98291H13.0849C12.4089 5.25291 11.4809 4.87298 10.3619 4.80298L10.3449 4.79297H10.2949Z" fill="black"/>
<path d="M10.2757 6.47197C10.0007 6.45197 9.76475 6.67206 9.75075 6.94206C9.73575 7.22206 9.94774 7.45197 10.2237 7.47197C10.6417 7.49197 10.9087 7.61203 11.0767 7.78203C11.2457 7.95203 11.3717 8.23202 11.3947 8.65202C11.4087 8.93202 11.6447 9.142 11.9207 9.132C12.1957 9.112 12.4077 8.88197 12.3927 8.60197C12.3607 8.00197 12.1727 7.47207 11.7877 7.08207C11.4007 6.69207 10.8737 6.50197 10.2757 6.47197Z" fill="black"/>
<path fill-rule="evenodd" clip-rule="evenodd" d="M4.817 0.5325C7.999 -0.1775 11.299 -0.1775 14.481 0.5325L14.82 0.612456C16.717 1.03246 18.214 2.49247 18.692 4.37247C19.499 7.55247 19.499 10.8925 18.692 14.0725C18.214 15.9625 16.717 17.4125 14.82 17.8325L14.481 17.9125C12.482 18.3625 10.437 18.5225 8.403 18.4125L5.75 20.7825C5.546 20.9725 5.26 21.0225 5.002 20.9325C4.744 20.8425 4.555 20.6224 4.51 20.3524L4.071 17.7325C2.369 17.2024 1.049 15.8225 0.606 14.0725C-0.202 10.8925 -0.202 7.55247 0.606 4.37247C1.084 2.49247 2.58099 1.03246 4.47799 0.612456L4.817 0.5325ZM14.154 2.00247C11.187 1.33247 8.11099 1.33247 5.14399 2.00247L4.805 2.07254C3.46 2.37254 2.39899 3.41246 2.05999 4.74246C1.31299 7.68246 1.31299 10.7625 2.05999 13.7025C2.39899 15.0425 3.46 16.0725 4.805 16.3725L4.89399 16.3925C5.19199 16.4625 5.42 16.7025 5.471 17.0025L5.765 18.7625L7.637 17.0825C7.788 16.9525 7.988 16.8825 8.19 16.8925C10.184 17.0325 12.193 16.8825 14.154 16.4525L14.493 16.3725C15.837 16.0725 16.899 15.0425 17.238 13.7025C17.984 10.7625 17.984 7.68246 17.238 4.74246C16.899 3.41246 15.837 2.37254 14.493 2.07254L14.154 2.00247Z" fill="black"/>
</svg>
