<svg width="60" height="60" viewBox="0 0 60 60" fill="none" xmlns="http://www.w3.org/2000/svg">
<path d="M49.3333 58.0834H10.6667C5.91667 58.0834 2 54.1667 2 49.3334V10.6667C2 5.83341 5.91667 1.91675 10.75 1.91675H49.4167C54.25 1.91675 58.1667 5.83341 58.1667 10.6667V49.3334C58.0833 54.1667 54.1667 58.0834 49.3333 58.0834Z" fill="#FF0000"/>
<path d="M45 2.25C52.0833 2.25 57.75 8 57.75 15V45C57.75 52.0833 52 57.75 45 57.75H15C8 57.8333 2.25 52.0833 2.25 45V15C2.25 8 8 2.25 15 2.25H45ZM45 0H15C6.75 0 0 6.75 0 15V45C0 53.3333 6.75 60 15 60H45C53.3333 60 60 53.25 60 45V15C60 6.75 53.3333 0 45 0Z" fill="black"/>
<path d="M59.2503 47.5H14.5837C11.5837 47.5 9.16699 45.0833 9.16699 42.0833V11H12.5003V42.0833C12.5003 43.25 13.417 44.1667 14.5837 44.1667H59.3337V47.5H59.2503Z" fill="black"/>
<path d="M41.4167 40.2498H17V36.9165H41.4167C43.25 36.9165 44.75 35.4165 44.75 33.5832C44.75 32.0832 43.75 30.7498 42.25 30.3332L22.3333 25.5832C19.4167 24.8332 17.3333 22.1665 17.3333 19.1665V18.8332C17.3333 15.1665 20.3333 12.1665 24 12.1665H54.25V15.4998H24C22.1667 15.4998 20.6667 16.9998 20.6667 18.8332V19.1665C20.6667 20.6665 21.6667 21.9998 23.1667 22.4165L43.0833 27.1665C46 27.9165 48.0833 30.5832 48.0833 33.5832C48.0833 37.2498 45.0833 40.2498 41.4167 40.2498Z" fill="black"/>
</svg>
